<svg height="512" viewBox="0 0 60 60" width="512" xmlns="http://www.w3.org/2000/svg"><g id="Page-1" fill="none" fill-rule="evenodd"><g id="036---Spare-Tyre-Swap" fill-rule="nonzero"><path id="Shape" d="m59 44c.008832 6.0377865-3.0202288 11.6749963-8.06 15h-19.88c-7.1674848-4.7475824-9.9770838-13.9010579-6.707407-21.8522585 3.2696768-7.9512005 11.7057738-12.4802433 20.1396477-10.8122661s14.5108851 9.0672944 14.5077593 17.6645246z" fill="#02a9f4"/><path id="Shape" d="m41 26c-.534 0-1.062.026-1.583.072 7.6550074.5977535 14.0861641 5.989657 16.0101913 13.4229985 1.9240273 7.4333416-1.0835133 15.2683335-7.4871913 19.5050015h3c6.6149152-4.3878357 9.5746309-12.5908417 7.2852424-20.1914275-2.2893886-7.6005859-9.2873468-12.8042198-17.2252424-12.8085725z" fill="#0377bc"/><path id="Shape" d="m41 33v8c-1.2977217.000956-2.4477065.8362081-2.85 2.07l-7.61-2.47c1.4745888-4.5299992 5.6960418-7.5972117 10.46-7.6z" fill="#9e9e9e"/><path id="Shape" d="m51.46 40.6-7.61 2.47c-.4022935-1.2337919-1.5522783-2.069044-2.85-2.07v-8c4.7639582.0027883 8.9854112 3.0700008 10.46 7.6z" fill="#607d8b"/><path id="Shape" d="m52 44c-.0036004 3.5194881-1.6865573 6.8259597-4.53 8.9l-4.71-6.47c.7800475-.5634698 1.241479-1.4677265 1.24-2.43.0022516-.3161988-.0484492-.6305435-.15-.93l7.61-2.47c.3589674 1.0975733.5412403 2.2452172.54 3.4z" fill="#7f8e94"/><path id="Shape" d="m51.46 40.6-2.752.893c.8139629 3.4543226-.0961773 7.0889199-2.442 9.752l1.2 1.655c2.8449538-2.0731854 4.5294674-5.3797956 4.534-8.9.0012403-1.1547828-.1810326-2.3024267-.54-3.4z" fill="#545c60"/><path id="Shape" d="m47.47 52.9c-3.8589405 2.7999626-9.0810595 2.7999626-12.94 0l4.71-6.47c1.0500429.7606859 2.4699571.7606859 3.52 0z" fill="#607d8b"/><path id="Shape" d="m39.24 46.43-4.71 6.47c-2.8434427-2.0740403-4.5263996-5.3805119-4.53-8.9-.0012403-1.1547828.1810326-2.3024267.54-3.4l7.61 2.47c-.1015508.2994565-.1522516.6138012-.15.93-.001479.9622735.4599525 1.8665302 1.24 2.43z" fill="#7f8e94"/><path id="Shape" d="m44 44c.001479.9622735-.4599525 1.8665302-1.24 2.43-1.0500429.7606859-2.4699571.7606859-3.52 0-.7800475-.5634698-1.241479-1.4677265-1.24-2.43-.0022516-.3161988.0484492-.6305435.15-.93.4046508-1.2311236 1.5540804-2.0632503 2.85-2.0632503s2.4453492.8321267 2.85 2.0632503c.1015508.2994565.1522516.6138012.15.93z" fill="#3f51b5"/><path id="Shape" d="m37 19c.0063071 2.7692949-.6340208 5.5018173-1.87 7.98-4.4737955 1.5501627-8.1588283 4.7970142-10.26 9.04-7.399684 2.5526697-15.60082191.0305156-20.28732447-6.2391048-4.68650256-6.2696204-4.78389666-14.849273-.2409258-21.22366405 4.54297086-6.37439109 12.68474107-9.08206586 20.14046527-6.69803106 7.4557243 2.38403479 12.5160308 9.31319221 12.517785 17.14079991z" fill="#3f51b5"/><path id="Shape" d="m19 1c-.506 0-1 .035-1.5.076 9.3237249.77584854 16.496864 8.56805126 16.5 17.924.0063071 2.7692949-.6340208 5.5018173-1.87 7.98-4.4737955 1.5501627-8.1588283 4.7970142-10.26 9.04-1.3869656.4751245-2.8265073.780024-4.287.908.469.037.939.072 1.417.072 1.9973785-.000036 3.9809344-.3311918 5.87-.98 2.1011717-4.2429858 5.7862045-7.4898373 10.26-9.04 1.2359792-2.4781827 1.8763071-5.2107051 1.87-7.98 0-4.7738968-1.8964231-9.35226725-5.2720779-12.72792206-3.3756549-3.37565481-7.9540253-5.27207794-12.7279221-5.27207794z" fill="#283593"/><path id="Shape" d="m19 8v8c-1.2977217.000956-2.4477065.8362081-2.85 2.07l-7.61-2.47c1.4745888-4.5299992 5.6960418-7.59721173 10.46-7.6z" fill="#9e9e9e"/><path id="Shape" d="m17.24 21.43-4.71 6.47c-2.84344269-2.0740403-4.5263996-5.3805119-4.53-8.9-.00124027-1.1547828.1810326-2.3024267.54-3.4l7.61 2.47c-.1015508.2994565-.1522516.6138012-.15.93-.001479.9622735.4599525 1.8665302 1.24 2.43z" fill="#7f8e94"/><path id="Shape" d="m25.47 27.9c-3.8589405 2.7999626-9.0810595 2.7999626-12.94 0l4.71-6.47c1.0500429.7606859 2.4699571.7606859 3.52 0z" fill="#607d8b"/><path id="Shape" d="m30 19c-.0036004 3.5194881-1.6865573 6.8259597-4.53 8.9l-4.71-6.47c.7800475-.5634698 1.241479-1.4677265 1.24-2.43.0022516-.3161988-.0484492-.6305435-.15-.93l7.61-2.47c.3589674 1.0975733.5412403 2.2452172.54 3.4z" fill="#7f8e94"/><path id="Shape" d="m29.46 15.6-7.61 2.47c-.4022935-1.2337919-1.5522783-2.069044-2.85-2.07v-8c4.7639582.00278827 8.9854112 3.0700008 10.46 7.6z" fill="#607d8b"/><path id="Shape" d="m22 19c.001479.9622735-.4599525 1.8665302-1.24 2.43-1.0500429.7606859-2.4699571.7606859-3.52 0-.7800475-.5634698-1.241479-1.4677265-1.24-2.43-.0022516-.3161988.0484492-.6305435.15-.93.4046508-1.2311236 1.5540804-2.0632503 2.85-2.0632503s2.4453492.8321267 2.85 2.0632503c.1015508.2994565.1522516.6138012.15.93z" fill="#3f51b5"/><path id="Shape" d="m56.707 17.293c-.3904999-.3903819-1.0235001-.3903819-1.414 0l-1.293 1.293v-1.586c-.0055111-4.9682782-4.0317218-8.99448887-9-9h-2c-.5522847 0-1 .44771525-1 1s.4477153 1 1 1h2c3.8641657.0044086 6.9955914 3.1358343 7 7v1.586l-1.293-1.293c-.3923789-.3789722-1.0160848-.3735524-1.4018186.0121814s-.3911536 1.0094397-.0121814 1.4018186l3 3c.3904999.3903819 1.0235001.3903819 1.414 0l3-3c.3903819-.3904999.3903819-1.0235001 0-1.414z" fill="#e91e63"/><path id="Shape" d="m17 50h-2c-3.8641657-.0044086-6.99559136-3.1358343-7-7v-1.586l1.293 1.293c.39237889.3789722 1.0160848.3735524 1.4018186-.0121814s.3911536-1.0094397.0121814-1.4018186l-3-3c-.39049985-.3903819-1.02350015-.3903819-1.414 0l-3 3c-.37897221.3923789-.37355237 1.0160848.01218142 1.4018186.3857338.3857338 1.00943969.3911536 1.40181858.0121814l1.293-1.293v1.586c.00551113 4.9682782 4.0317218 8.9944889 9 9h2c.5522847 0 1-.4477153 1-1s-.4477153-1-1-1z" fill="#e91e63"/><g fill="#000"><path id="Shape" d="m57.445 53.514.01-.014v-.011c3.3773123-5.8403888 3.3895045-13.0372017.032-18.889-.0087096-.0322926-.0193965-.0640191-.032-.095-.0255179-.033167-.0532478-.0645718-.083-.094-1.6472258-2.7987549-3.9802451-5.1317742-6.779-6.779-.0295795-.0289034-.0606202-.0562726-.093-.082-.03-.017-.063-.017-.094-.031-4.0932416-2.3635398-8.9277881-3.0949538-13.537-2.048 1.8959617-5.2361137 1.3904546-11.0413983-1.382-15.871-.0085089-.03398572-.0191977-.06738819-.032-.1-.0255179-.03316697-.0532478-.06457183-.083-.094-1.6475413-2.79851072-3.9804893-5.1314587-6.779-6.779-.0295795-.02890341-.0606202-.0562726-.093-.082-.03-.017-.063-.017-.094-.031-5.8227101-3.35200604-12.9892899-3.35200604-18.812 0-.031.014-.064.014-.094.031-.03237984.0257274-.06342051.05309659-.093.082-2.79785334 1.64576513-5.13075807 3.97660505-6.779 6.773-.02993812.03138075-.05767091.06479375-.083.1-.01280234.03261181-.02349113.06601428-.032.1-3.35062335 5.8223654-3.35062335 12.9876346 0 18.81.00870964.0322926.01939647.0640191.032.095.03500161.0559249.07553893.1081879.121.156 1.6451003 2.7712538 3.96389632 5.0817942 6.741 6.717.02957949.0289034.06062016.0562726.093.082.04190225.0209915.08536517.038711.13.053 2.8532596 1.6313238 6.083314 2.4886499 9.37 2.487 1.3998577-.0048915 2.7949243-.1638486 4.16-.474-1.9364115 5.2616086-1.4302684 11.1121253 1.381 15.963v.011l.01.014c.9690432 1.6715864 2.1889125 3.1845347 3.617 4.486h-3.168c-.5522847 0-1 .4477153-1 1s.4477153 1 1 1h32c.5522847 0 1-.4477153 1-1s-.4477153-1-1-1h-3.168c1.4266671-1.3017592 2.6451749-2.814692 3.613-4.486zm-37.445-17.555v-.959c0-.5522847-.4477153-1-1-1s-1 .4477153-1 1v.949c-2.3008507-.1311449-4.5502833-.73324-6.609-1.769l.475-.824c.1814844-.3095704.1831833-.6926495.0044519-1.0038174-.1787315-.311168-.5104885-.5027136-.8693336-.5019247s-.6897567.1937913-.8671183.5057421l-.479.83c-1.9227463-1.2717593-3.5692407-2.9182537-4.841-4.841l.83-.479c.31195078-.1773616.50495322-.5082732.5057421-.8671183.00078889-.3588451-.19075673-.6906021-.50192468-.8693336-.31116795-.1787314-.694247-.1770325-1.00381742.0044519l-.824.475c-1.03565329-2.0587573-1.63774233-4.3081674-1.769-6.609h.949c.55228475 0 1-.4477153 1-1s-.44771525-1-1-1h-.949c.13125767-2.3008326.73334671-4.5502427 1.769-6.609l.824.475c.30957042.1814844.69264947.1831833 1.00381742.0044519.31116795-.1787315.50271357-.5104885.50192468-.8693336-.00078888-.3588451-.19379132-.6897567-.5057421-.8671183l-.83-.479c1.2717593-1.9227463 2.9182537-3.5692407 4.841-4.841l.479.83c.2780058.47421361.886647.63512861 1.3626943.36027453s.640996-.88241457.3693057-1.36027453l-.475-.824c2.0587167-1.03576 4.3081493-1.63785506 6.609-1.769v.949c0 .55228475.4477153 1 1 1s1-.44771525 1-1v-.949c2.3008507.13114494 4.5502833.73324 6.609 1.769l-.475.824c-.1814844.30957042-.1831833.69264947-.0044519 1.00381742.1787315.31116795.5104885.50271357.8693336.50192468.3588451-.00078888.6897567-.19379132.8671183-.5057421l.479-.83c1.9227463 1.2717593 3.5692407 2.9182537 4.841 4.841l-.83.479c-.3119508.1773616-.5049532.5082732-.5057421.8671183s.1907567.6906021.5019247.8693336c.3111679.1787314.694247.1770325 1.0038174-.0044519l.824-.475c1.0356533 2.0587573 1.6377423 4.3081674 1.769 6.609h-.949c-.5522847 0-1 .4477153-1 1s.4477153 1 1 1h.944c-.1157346 2.1548037-.6500132 4.2664439-1.573 6.217-.9593716.3573499-1.8880983.7921157-2.777 1.3-.031.014-.064.014-.094.031-.0323798.0257274-.0634205.0530966-.093.082-2.7987549 1.6472258-5.1317742 3.9802451-6.779 6.779-.0297522.0294282-.0574821.060833-.083.094-.0126035.0309809-.0232904.0627074-.032.095-.111.194-.223.387-.327.586-1.3576748.4314068-2.763867.6917506-4.186.775zm11.376 22.041c-1.8105159-1.2388375-3.3629711-2.8177839-4.571-4.649l.839-.485c.3119508-.1773616.5049532-.5082732.5057421-.8671183s-.1907567-.6906021-.5019247-.8693336c-.3111679-.1787314-.694247-.1770325-1.0038174.0044519l-.84.484c-1.0352263-2.0623513-1.6385435-4.3143274-1.773-6.618h.969c.5522847 0 1-.4477153 1-1s-.4477153-1-1-1h-.949c.1312577-2.3008326.7333467-4.5502427 1.769-6.609l.824.475c.3095704.1814844.6926495.1831833 1.0038174.0044519.311168-.1787315.5027136-.5104885.5019247-.8693336s-.1937913-.6897567-.5057421-.8671183l-.83-.479c1.2717593-1.9227463 2.9182537-3.5692407 4.841-4.841l.479.83c.1773616.3119508.5082732.5049532.8671183.5057421s.6906021-.1907567.8693336-.5019247c.1787314-.3111679.1770325-.694247-.0044519-1.0038174l-.475-.824c2.0587167-1.03576 4.3081493-1.6378551 6.609-1.769v.949c0 .5522847.4477153 1 1 1s1-.4477153 1-1v-.949c2.3008507.1311449 4.5502833.73324 6.609 1.769l-.475.824c-.1814844.3095704-.1831833.6926495-.0044519 1.0038174.1787315.311168.5104885.5027136.8693336.5019247s.6897567-.1937913.8671183-.5057421l.479-.83c1.9227463 1.2717593 3.5692407 2.9182537 4.841 4.841l-.83.479c-.3119508.1773616-.5049532.5082732-.5057421.8671183s.1907567.6906021.5019247.8693336c.3111679.1787314.694247.1770325 1.0038174-.0044519l.824-.475c1.0356533 2.0587573 1.6377423 4.3081674 1.769 6.609h-.949c-.5522847 0-1 .4477153-1 1s.4477153 1 1 1h.969c-.1332083 2.303389-.7351607 4.5553509-1.769 6.618l-.84-.484c-.3095704-.1814844-.6926495-.1831833-1.0038174-.0044519-.311168.1787315-.5027136.5104885-.5019247.8693336s.1937913.6897567.5057421.8671183l.839.485c-1.209205 1.8315924-2.7630439 3.4105645-4.575 4.649z"/><path id="Shape" d="m41 32c-6.627417 0-12 5.372583-12 12s5.372583 12 12 12 12-5.372583 12-12c-.0071648-6.624447-5.375553-11.9928352-12-12zm9.148 7.976-5.783 1.879c-.5442853-.8486405-1.3889594-1.4604489-2.365-1.713v-6.091c3.5836724.3665566 6.6946843 2.6287984 8.148 5.925zm-11.148 4.024c0-1.1045695.8954305-2 2-2s2 .8954305 2 2-.8954305 2-2 2-2-.8954305-2-2zm1-9.949v6.091c-.9760406.2525511-1.8207147.8643595-2.365 1.713l-5.783-1.879c1.4533157-3.2962016 4.5643276-5.5584434 8.148-5.925zm-9 9.949c.001106-.7139316.0788853-1.4256798.232-2.123l5.792 1.883c-.005.081-.024.158-.024.24.0040857.9254053.3320603 1.8201711.927 2.529l-3.575 4.92c-2.1303233-1.8900149-3.3503016-4.6011182-3.352-7.449zm4.968 8.627 3.569-4.913c.9380621.3813231 1.9879379.3813231 2.926 0l3.569 4.913c-3.1049404 1.8305718-6.9590596 1.8305718-10.064 0zm11.68-1.178-3.575-4.92c.5949397-.7088289.9229143-1.6035947.927-2.529 0-.082-.019-.159-.024-.24l5.792-1.883c.7746432 3.5204661-.4195657 7.1842378-3.12 9.572z"/><path id="Shape" d="m31 19c0-6.627417-5.372583-12-12-12s-12 5.372583-12 12 5.372583 12 12 12c6.624447-.0071648 11.9928352-5.375553 12-12zm-5.352 7.449-3.575-4.92c.5949397-.7088289.9229143-1.6035947.927-2.529 0-.082-.019-.159-.024-.24l5.792-1.883c.7746432 3.5204661-.4195657 7.1842378-3.12 9.572zm-8.648-7.449c0-1.1045695.8954305-2 2-2s2 .8954305 2 2-.8954305 2-2 2-2-.8954305-2-2zm11.148-4.024-5.783 1.879c-.5442853-.8486405-1.3889594-1.4604489-2.365-1.713v-6.091c3.5836724.36655664 6.6946843 2.6287984 8.148 5.925zm-10.148-5.925v6.091c-.9760406.2525511-1.8207147.8643595-2.365 1.713l-5.783-1.879c1.4533157-3.2962016 4.5643276-5.55844336 8.148-5.925zm-9 9.949c.00110598-.7139316.07888533-1.4256798.232-2.123l5.792 1.883c0 .081-.024.158-.024.24.0040857.9254053.3320603 1.8201711.927 2.529l-3.575 4.92c-2.1303233-1.8900149-3.35030157-4.6011182-3.352-7.449zm4.968 8.627 3.569-4.913c.9380621.3813231 1.9879379.3813231 2.926 0l3.569 4.913c-3.1049404 1.8305718-6.9590596 1.8305718-10.064 0z"/></g></g></g></svg>